<?xml version="1.0" standalone="no"?>
<!DOCTYPE svg PUBLIC "-//W3C//DTD SVG 20010904//EN"
 "http://www.w3.org/TR/2001/REC-SVG-20010904/DTD/svg10.dtd">
<svg version="1.0" xmlns="http://www.w3.org/2000/svg"
 width="360.000000pt" height="360.000000pt" viewBox="0 0 360.000000 360.000000"
 preserveAspectRatio="xMidYMid meet">
<metadata>
Created by potrace 1.11, written by Peter Selinger 2001-2013
</metadata>
<g transform="translate(0.000000,360.000000) scale(0.100000,-0.100000)"
fill="#000000" stroke="none">
<path d="M1565 3585 c-120 -19 -147 -24 -183 -34 -18 -5 -36 -10 -40 -11 -27
-3 -160 -48 -228 -76 -583 -241 -991 -761 -1096 -1399 -14 -85 -18 -394 -6
-485 88 -686 557 -1261 1209 -1484 94 -32 203 -59 284 -71 17 -3 57 -9 89 -14
125 -18 426 -6 561 23 483 104 889 380 1151 782 117 178 202 381 247 584 37
168 38 178 42 375 2 180 -6 273 -40 420 -22 99 -20 93 -53 191 -132 392 -423
749 -786 963 -196 115 -438 203 -631 227 -22 3 -47 8 -55 11 -31 12 -387 10
-465 -2z m440 -297 c6 -3 35 -9 65 -13 129 -16 343 -96 485 -179 375 -222 628
-577 716 -1006 31 -148 33 -422 5 -565 -125 -636 -626 -1115 -1266 -1210 -91
-13 -406 -15 -427 -2 -5 3 -32 9 -59 13 -120 16 -335 95 -465 170 -385 224
-650 595 -735 1029 -19 102 -27 369 -13 455 5 30 11 70 14 89 35 221 151 476
302 664 189 235 424 398 710 493 160 53 289 71 488 69 94 0 175 -4 180 -7z"/>
</g>
</svg>
